<svg
 version="1.1"
  xmlns="http://www.w3.org/2000/svg"
   viewBox="0 0 412.48 412.48" 
   xmlns:xlink="http://www.w3.org/1999/xlink"
    enable-background="new 0 0 412.48 412.48">
    <g>
    <path 
    d="m404.98,338.398c4.143,0 7.5-3.358 7.5-7.5v-103.494c0-4.142-3.357-7.5-7.5-7.5h-278.986v-167.473c7.32-2.974 12.5-10.152 12.5-18.527 0-11.028-8.972-20-20-20s-20,8.972-20,20c0,8.375 5.18,15.553 12.5,18.527v167.473h-103.494c-4.142,0-7.5,3.358-7.5,7.5v103.495c0,4.142 3.358,7.5 7.5,7.5h63.529v11.999h-63.529c-4.142,0-7.5,3.358-7.5,7.5v33.18c0,4.142 3.358,7.5 7.5,7.5h397.48c4.143,0 7.5-3.358 7.5-7.5v-33.18c0-4.142-3.357-7.5-7.5-7.5h-63.531v-11.999h63.531zm-286.486-309.495c2.757,3.55271e-15 5,2.243 5,5s-2.243,5-5,5-5-2.243-5-5 2.243-5 5-5zm172.345,206v61.496h-64.203v-61.496h64.203zm-275.839,0h196.636v68.996c0,4.142 3.357,7.5 7.5,7.5h79.203c4.143,0 7.5-3.358 7.5-7.5v-68.996h91.642v88.495h-382.481v-88.495zm382.48,148.673h-382.48v-18.18h382.48v18.18zm-71.031-33.18h-240.42v-11.999h240.42v11.999z">
    </path>
    <path
     d="m258.737,285.652c11.028,0 20-8.972 20-20s-8.972-20-20-20-20,8.972-20,20 8.972,20 20,20zm0-25c2.757,0 5,2.243 5,5s-2.243,5-5,5-5-2.243-5-5 2.243-5 5-5z">
     </path>
     </g>
     </svg>